<mxfile host="Electron" agent="Mozilla/5.0 (Windows NT 10.0; Win64; x64) AppleWebKit/537.36 (KHTML, like Gecko) draw.io/24.7.8 Chrome/128.0.6613.36 Electron/32.0.1 Safari/537.36" version="24.7.8">
  <diagram name="Page-1" id="s6JWqiPoOMxAc28EaqNb">
    <mxGraphModel dx="780" dy="496" grid="1" gridSize="10" guides="1" tooltips="1" connect="1" arrows="1" fold="1" page="1" pageScale="1" pageWidth="850" pageHeight="1100" math="0" shadow="0">
      <root>
        <mxCell id="0" />
        <mxCell id="1" parent="0" />
        <mxCell id="XkgpcIV6Bk1X56_IFxDP-3" value="" style="edgeStyle=orthogonalEdgeStyle;rounded=0;orthogonalLoop=1;jettySize=auto;html=1;" edge="1" parent="1" source="XkgpcIV6Bk1X56_IFxDP-1" target="XkgpcIV6Bk1X56_IFxDP-2">
          <mxGeometry relative="1" as="geometry" />
        </mxCell>
        <mxCell id="XkgpcIV6Bk1X56_IFxDP-1" value="Mulai" style="ellipse;whiteSpace=wrap;html=1;" vertex="1" parent="1">
          <mxGeometry x="340" y="220" width="120" height="80" as="geometry" />
        </mxCell>
        <mxCell id="XkgpcIV6Bk1X56_IFxDP-5" value="" style="edgeStyle=orthogonalEdgeStyle;rounded=0;orthogonalLoop=1;jettySize=auto;html=1;" edge="1" parent="1" source="XkgpcIV6Bk1X56_IFxDP-2" target="XkgpcIV6Bk1X56_IFxDP-4">
          <mxGeometry relative="1" as="geometry" />
        </mxCell>
        <mxCell id="XkgpcIV6Bk1X56_IFxDP-2" value="Halaman Manajemen Ulasan" style="shape=process;whiteSpace=wrap;html=1;backgroundOutline=1;" vertex="1" parent="1">
          <mxGeometry x="340" y="340" width="120" height="60" as="geometry" />
        </mxCell>
        <mxCell id="XkgpcIV6Bk1X56_IFxDP-7" value="" style="edgeStyle=orthogonalEdgeStyle;rounded=0;orthogonalLoop=1;jettySize=auto;html=1;" edge="1" parent="1" source="XkgpcIV6Bk1X56_IFxDP-4" target="XkgpcIV6Bk1X56_IFxDP-6">
          <mxGeometry relative="1" as="geometry" />
        </mxCell>
        <mxCell id="XkgpcIV6Bk1X56_IFxDP-4" value="Input&lt;div&gt;1. Nama Pemberi Ulasan&lt;/div&gt;&lt;div&gt;2. Tipe&lt;/div&gt;&lt;div&gt;3. Penilaian&lt;/div&gt;&lt;div&gt;4. Komentar&lt;/div&gt;" style="shape=parallelogram;perimeter=parallelogramPerimeter;whiteSpace=wrap;html=1;fixedSize=1;align=center;" vertex="1" parent="1">
          <mxGeometry x="315" y="440" width="170" height="80" as="geometry" />
        </mxCell>
        <mxCell id="XkgpcIV6Bk1X56_IFxDP-6" value="Selesai" style="ellipse;whiteSpace=wrap;html=1;" vertex="1" parent="1">
          <mxGeometry x="340" y="570" width="120" height="80" as="geometry" />
        </mxCell>
      </root>
    </mxGraphModel>
  </diagram>
</mxfile>
